<?xml version="1.0" encoding="UTF-8" standalone="no"?>
<svg
   xmlns:dc="http://purl.org/dc/elements/1.1/"
   xmlns:cc="http://creativecommons.org/ns#"
   xmlns:rdf="http://www.w3.org/1999/02/22-rdf-syntax-ns#"
   xmlns:svg="http://www.w3.org/2000/svg"
   xmlns="http://www.w3.org/2000/svg"
   xmlns:sodipodi="http://sodipodi.sourceforge.net/DTD/sodipodi-0.dtd"
   xmlns:inkscape="http://www.inkscape.org/namespaces/inkscape"
   version="1.0"
   width="150pt"
   height="150pt"
   viewBox="0 0 150 150"
   preserveAspectRatio="xMidYMid meet"
   id="svg12"
   sodipodi:docname="ba.svg"
   inkscape:version="1.0.1 (3bc2e813f5, 2020-09-07)">
  <defs
     id="defs16" />
  <sodipodi:namedview
     pagecolor="#ffffff"
     bordercolor="#666666"
     borderopacity="1"
     objecttolerance="10"
     gridtolerance="10"
     guidetolerance="10"
     inkscape:pageopacity="0"
     inkscape:pageshadow="2"
     inkscape:window-width="1313"
     inkscape:window-height="765"
     id="namedview14"
     showgrid="false"
     inkscape:zoom="1.5026019"
     inkscape:cx="133.23068"
     inkscape:cy="170.28375"
     inkscape:window-x="589"
     inkscape:window-y="233"
     inkscape:window-maximized="0"
     inkscape:current-layer="svg12" />
  <metadata
     id="metadata2">
Created by potrace 1.16, written by Peter Selinger 2001-2019
<rdf:RDF>
  <cc:Work
     rdf:about="">
    <dc:format>image/svg+xml</dc:format>
    <dc:type
       rdf:resource="http://purl.org/dc/dcmitype/StillImage" />
    <dc:title></dc:title>
  </cc:Work>
</rdf:RDF>
</metadata>
  <g
     transform="matrix(0.03415395,0,0,-0.03415395,-25.70241,176.82878)"
     fill="#000000"
     stroke="none"
     id="g10">
    <path
       d="m 2771,4749 c -435,-42 -863,-261 -1147,-587 -203,-234 -339,-506 -406,-812 -20,-93 -22,-132 -22,-350 0,-218 2,-257 22,-350 136,-624 573,-1117 1168,-1316 539,-180 1137,-89 1594,245 356,259 596,632 692,1071 20,93 22,132 22,350 0,217 -2,257 -22,348 -196,896 -999,1488 -1901,1401 z m 462,-104 c 252,-46 498,-151 703,-300 113,-83 308,-283 382,-393 138,-202 232,-431 274,-662 29,-161 29,-419 0,-580 -64,-353 -233,-667 -494,-915 -315,-300 -726,-465 -1161,-465 -712,0 -1359,473 -1582,1156 -57,174 -78,310 -78,514 0,134 5,202 21,290 84,461 348,856 745,1115 205,133 455,222 714,255 97,12 373,4 476,-15 z"
       id="path4" />
    <path
       d="m 3557,3712 -27,-28 76,-164 75,-164 -163,-163 -164,-164 -164,75 -165,75 -32,-31 c -18,-17 -32,-33 -30,-34 1,-1 133,-62 292,-134 160,-73 391,-179 515,-236 123,-57 229,-104 234,-104 14,0 66,51 66,65 0,7 -58,137 -129,291 -71,153 -176,382 -234,509 -58,126 -109,231 -114,232 -5,2 -21,-9 -36,-25 z m 283,-701 c 61,-133 109,-245 107,-247 -3,-3 -89,34 -193,82 -104,47 -217,99 -251,115 l -63,28 138,138 c 75,76 140,136 144,133 3,-3 56,-115 118,-249 z"
       id="path6" />
    <path
       d="m 2471,3390 c -74,-16 -175,-90 -193,-142 -4,-9 -13,-5 -34,16 -53,52 -101,71 -184,71 -113,0 -187,-43 -238,-140 l -27,-50 v -255 -255 h 510 510 l 3,265 c 3,304 0,321 -75,401 -69,74 -175,108 -272,89 z m 152,-106 c 46,-23 66,-43 90,-89 20,-37 22,-58 25,-257 l 4,-218 h -205 c -206,0 -206,0 -209,23 -2,12 -1,115 2,228 5,197 6,207 29,241 61,89 171,119 264,72 z m -485,-53 c 90,-46 102,-83 102,-321 v -190 h -180 -180 v 195 c 0,209 6,240 51,282 61,55 140,68 207,34 z"
       id="path8" />
  </g>
</svg>
